<mxfile host="app.diagrams.net" agent="Mozilla/5.0 (Windows NT 10.0; Win64; x64) AppleWebKit/537.36 (KHTML, like Gecko) Chrome/131.0.0.0 Safari/537.36 Edg/131.0.0.0" version="25.0.0">
  <diagram name="Page-1" id="aniZwpCdEMc0Wm7a_j-Q">
    <mxGraphModel dx="575" dy="343" grid="1" gridSize="10" guides="1" tooltips="1" connect="1" arrows="1" fold="1" page="1" pageScale="1" pageWidth="850" pageHeight="1100" math="0" shadow="0">
      <root>
        <mxCell id="0" />
        <mxCell id="1" parent="0" />
        <mxCell id="KaYYD5McjIgpDxFcV0bV-26" value="" style="rounded=1;whiteSpace=wrap;html=1;" vertex="1" parent="1">
          <mxGeometry x="390" y="535" width="410" height="70" as="geometry" />
        </mxCell>
        <mxCell id="KaYYD5McjIgpDxFcV0bV-6" style="edgeStyle=orthogonalEdgeStyle;rounded=0;orthogonalLoop=1;jettySize=auto;html=1;entryX=0.5;entryY=0;entryDx=0;entryDy=0;" edge="1" parent="1" source="KaYYD5McjIgpDxFcV0bV-1" target="KaYYD5McjIgpDxFcV0bV-5">
          <mxGeometry relative="1" as="geometry" />
        </mxCell>
        <mxCell id="KaYYD5McjIgpDxFcV0bV-1" value="Load CSV Data" style="rounded=1;whiteSpace=wrap;html=1;" vertex="1" parent="1">
          <mxGeometry x="160" y="320" width="120" height="60" as="geometry" />
        </mxCell>
        <mxCell id="KaYYD5McjIgpDxFcV0bV-11" style="edgeStyle=orthogonalEdgeStyle;rounded=0;orthogonalLoop=1;jettySize=auto;html=1;exitX=1;exitY=0.5;exitDx=0;exitDy=0;entryX=0;entryY=0.5;entryDx=0;entryDy=0;" edge="1" parent="1" source="KaYYD5McjIgpDxFcV0bV-3" target="KaYYD5McjIgpDxFcV0bV-10">
          <mxGeometry relative="1" as="geometry" />
        </mxCell>
        <mxCell id="KaYYD5McjIgpDxFcV0bV-27" style="edgeStyle=orthogonalEdgeStyle;rounded=0;orthogonalLoop=1;jettySize=auto;html=1;entryX=0;entryY=0.5;entryDx=0;entryDy=0;" edge="1" parent="1" source="KaYYD5McjIgpDxFcV0bV-3" target="KaYYD5McjIgpDxFcV0bV-26">
          <mxGeometry relative="1" as="geometry" />
        </mxCell>
        <mxCell id="KaYYD5McjIgpDxFcV0bV-3" value="Inputes By Mean" style="rounded=1;whiteSpace=wrap;html=1;" vertex="1" parent="1">
          <mxGeometry x="160" y="540" width="120" height="60" as="geometry" />
        </mxCell>
        <mxCell id="KaYYD5McjIgpDxFcV0bV-7" style="edgeStyle=orthogonalEdgeStyle;rounded=0;orthogonalLoop=1;jettySize=auto;html=1;entryX=0.5;entryY=0;entryDx=0;entryDy=0;" edge="1" parent="1" source="KaYYD5McjIgpDxFcV0bV-5" target="KaYYD5McjIgpDxFcV0bV-3">
          <mxGeometry relative="1" as="geometry" />
        </mxCell>
        <mxCell id="KaYYD5McjIgpDxFcV0bV-5" value="Convert Into Matrix" style="rounded=1;whiteSpace=wrap;html=1;" vertex="1" parent="1">
          <mxGeometry x="160" y="430" width="120" height="60" as="geometry" />
        </mxCell>
        <mxCell id="KaYYD5McjIgpDxFcV0bV-73" style="edgeStyle=orthogonalEdgeStyle;rounded=0;orthogonalLoop=1;jettySize=auto;html=1;entryX=0;entryY=0.5;entryDx=0;entryDy=0;" edge="1" parent="1" source="KaYYD5McjIgpDxFcV0bV-10" target="KaYYD5McjIgpDxFcV0bV-70">
          <mxGeometry relative="1" as="geometry">
            <Array as="points">
              <mxPoint x="466" y="500" />
            </Array>
          </mxGeometry>
        </mxCell>
        <mxCell id="KaYYD5McjIgpDxFcV0bV-10" value="" style="rhombus;whiteSpace=wrap;html=1;strokeWidth=2;fillWeight=-1;hachureGap=8;fillStyle=cross-hatch;fillColor=#006600;sketch=1;" vertex="1" parent="1">
          <mxGeometry x="391.25" y="350" width="150" height="100" as="geometry" />
        </mxCell>
        <mxCell id="KaYYD5McjIgpDxFcV0bV-74" style="edgeStyle=orthogonalEdgeStyle;rounded=0;orthogonalLoop=1;jettySize=auto;html=1;exitX=0.5;exitY=1;exitDx=0;exitDy=0;" edge="1" parent="1" source="KaYYD5McjIgpDxFcV0bV-12" target="KaYYD5McjIgpDxFcV0bV-70">
          <mxGeometry relative="1" as="geometry">
            <Array as="points">
              <mxPoint x="716" y="500" />
            </Array>
          </mxGeometry>
        </mxCell>
        <mxCell id="KaYYD5McjIgpDxFcV0bV-12" value="" style="rhombus;whiteSpace=wrap;html=1;strokeWidth=2;fillWeight=-1;hachureGap=8;fillStyle=cross-hatch;fillColor=#006600;sketch=1;" vertex="1" parent="1">
          <mxGeometry x="641.25" y="350" width="150" height="100" as="geometry" />
        </mxCell>
        <mxCell id="KaYYD5McjIgpDxFcV0bV-13" value="&lt;font style=&quot;font-size: 26px;&quot;&gt;...&lt;/font&gt;" style="text;html=1;align=center;verticalAlign=middle;resizable=0;points=[];autosize=1;strokeColor=none;fillColor=none;" vertex="1" parent="1">
          <mxGeometry x="571.25" y="380" width="40" height="40" as="geometry" />
        </mxCell>
        <mxCell id="KaYYD5McjIgpDxFcV0bV-14" value="" style="shape=curlyBracket;whiteSpace=wrap;html=1;rounded=1;flipH=1;labelPosition=right;verticalLabelPosition=middle;align=left;verticalAlign=middle;rotation=-90;" vertex="1" parent="1">
          <mxGeometry x="561.25" y="140" width="50" height="360" as="geometry" />
        </mxCell>
        <mxCell id="KaYYD5McjIgpDxFcV0bV-15" value="&lt;font style=&quot;font-size: 16px;&quot;&gt;9 Global Reg Trees&lt;/font&gt;" style="text;html=1;align=center;verticalAlign=middle;resizable=0;points=[];autosize=1;strokeColor=none;fillColor=none;" vertex="1" parent="1">
          <mxGeometry x="506.25" y="270" width="160" height="30" as="geometry" />
        </mxCell>
        <mxCell id="KaYYD5McjIgpDxFcV0bV-20" value="Student o1" style="rounded=1;whiteSpace=wrap;html=1;" vertex="1" parent="1">
          <mxGeometry x="410" y="550" width="80" height="40" as="geometry" />
        </mxCell>
        <mxCell id="KaYYD5McjIgpDxFcV0bV-21" value="Student o21" style="rounded=1;whiteSpace=wrap;html=1;" vertex="1" parent="1">
          <mxGeometry x="672.5" y="550" width="85" height="40" as="geometry" />
        </mxCell>
        <mxCell id="KaYYD5McjIgpDxFcV0bV-22" value="Student o2" style="rounded=1;whiteSpace=wrap;html=1;" vertex="1" parent="1">
          <mxGeometry x="520" y="550" width="80" height="40" as="geometry" />
        </mxCell>
        <mxCell id="KaYYD5McjIgpDxFcV0bV-24" value="&lt;font style=&quot;font-size: 26px;&quot;&gt;...&lt;/font&gt;" style="text;html=1;align=center;verticalAlign=middle;resizable=0;points=[];autosize=1;strokeColor=none;fillColor=none;" vertex="1" parent="1">
          <mxGeometry x="616.25" y="540" width="40" height="40" as="geometry" />
        </mxCell>
        <mxCell id="KaYYD5McjIgpDxFcV0bV-29" value="" style="rhombus;whiteSpace=wrap;html=1;strokeWidth=2;fillWeight=-1;hachureGap=8;fillStyle=cross-hatch;fillColor=#006600;sketch=1;" vertex="1" parent="1">
          <mxGeometry x="420" y="630" width="58.75" height="40" as="geometry" />
        </mxCell>
        <mxCell id="KaYYD5McjIgpDxFcV0bV-30" value="" style="rhombus;whiteSpace=wrap;html=1;strokeWidth=2;fillWeight=-1;hachureGap=8;fillStyle=cross-hatch;fillColor=#006600;sketch=1;" vertex="1" parent="1">
          <mxGeometry x="421.26" y="690" width="58.75" height="40" as="geometry" />
        </mxCell>
        <mxCell id="KaYYD5McjIgpDxFcV0bV-32" value="" style="rhombus;whiteSpace=wrap;html=1;strokeWidth=2;fillWeight=-1;hachureGap=8;fillStyle=cross-hatch;fillColor=#006600;sketch=1;" vertex="1" parent="1">
          <mxGeometry x="421.26" y="780" width="58.75" height="40" as="geometry" />
        </mxCell>
        <mxCell id="KaYYD5McjIgpDxFcV0bV-33" value="&lt;font style=&quot;font-size: 20px;&quot;&gt;...&lt;/font&gt;" style="text;html=1;align=center;verticalAlign=middle;resizable=0;points=[];autosize=1;strokeColor=none;fillColor=none;rotation=90;" vertex="1" parent="1">
          <mxGeometry x="446.25" y="740" width="40" height="40" as="geometry" />
        </mxCell>
        <mxCell id="KaYYD5McjIgpDxFcV0bV-34" value="" style="rhombus;whiteSpace=wrap;html=1;strokeWidth=2;fillWeight=-1;hachureGap=8;fillStyle=cross-hatch;fillColor=#006600;sketch=1;" vertex="1" parent="1">
          <mxGeometry x="530" y="630" width="58.75" height="40" as="geometry" />
        </mxCell>
        <mxCell id="KaYYD5McjIgpDxFcV0bV-35" value="" style="rhombus;whiteSpace=wrap;html=1;strokeWidth=2;fillWeight=-1;hachureGap=8;fillStyle=cross-hatch;fillColor=#006600;sketch=1;" vertex="1" parent="1">
          <mxGeometry x="531.26" y="690" width="58.75" height="40" as="geometry" />
        </mxCell>
        <mxCell id="KaYYD5McjIgpDxFcV0bV-36" value="" style="rhombus;whiteSpace=wrap;html=1;strokeWidth=2;fillWeight=-1;hachureGap=8;fillStyle=cross-hatch;fillColor=#006600;sketch=1;" vertex="1" parent="1">
          <mxGeometry x="531.26" y="780" width="58.75" height="40" as="geometry" />
        </mxCell>
        <mxCell id="KaYYD5McjIgpDxFcV0bV-75" style="edgeStyle=orthogonalEdgeStyle;rounded=0;orthogonalLoop=1;jettySize=auto;html=1;entryX=0;entryY=0.5;entryDx=0;entryDy=0;" edge="1" parent="1" source="KaYYD5McjIgpDxFcV0bV-38" target="KaYYD5McjIgpDxFcV0bV-72">
          <mxGeometry relative="1" as="geometry" />
        </mxCell>
        <mxCell id="KaYYD5McjIgpDxFcV0bV-38" value="" style="rhombus;whiteSpace=wrap;html=1;strokeWidth=2;fillWeight=-1;hachureGap=8;fillStyle=cross-hatch;fillColor=#006600;sketch=1;" vertex="1" parent="1">
          <mxGeometry x="684.99" y="630" width="58.75" height="40" as="geometry" />
        </mxCell>
        <mxCell id="KaYYD5McjIgpDxFcV0bV-76" style="edgeStyle=orthogonalEdgeStyle;rounded=0;orthogonalLoop=1;jettySize=auto;html=1;entryX=0;entryY=0.5;entryDx=0;entryDy=0;" edge="1" parent="1" source="KaYYD5McjIgpDxFcV0bV-39" target="KaYYD5McjIgpDxFcV0bV-72">
          <mxGeometry relative="1" as="geometry" />
        </mxCell>
        <mxCell id="KaYYD5McjIgpDxFcV0bV-39" value="" style="rhombus;whiteSpace=wrap;html=1;strokeWidth=2;fillWeight=-1;hachureGap=8;fillStyle=cross-hatch;fillColor=#006600;sketch=1;" vertex="1" parent="1">
          <mxGeometry x="686.25" y="690" width="58.75" height="40" as="geometry" />
        </mxCell>
        <mxCell id="KaYYD5McjIgpDxFcV0bV-77" style="edgeStyle=orthogonalEdgeStyle;rounded=0;orthogonalLoop=1;jettySize=auto;html=1;entryX=0;entryY=0.5;entryDx=0;entryDy=0;" edge="1" parent="1" source="KaYYD5McjIgpDxFcV0bV-40" target="KaYYD5McjIgpDxFcV0bV-72">
          <mxGeometry relative="1" as="geometry" />
        </mxCell>
        <mxCell id="KaYYD5McjIgpDxFcV0bV-40" value="" style="rhombus;whiteSpace=wrap;html=1;strokeWidth=2;fillWeight=-1;hachureGap=8;fillStyle=cross-hatch;fillColor=#006600;sketch=1;" vertex="1" parent="1">
          <mxGeometry x="686.25" y="780" width="58.75" height="40" as="geometry" />
        </mxCell>
        <mxCell id="KaYYD5McjIgpDxFcV0bV-43" value="" style="shape=curlyBracket;whiteSpace=wrap;html=1;rounded=1;labelPosition=left;verticalLabelPosition=middle;align=right;verticalAlign=middle;" vertex="1" parent="1">
          <mxGeometry x="390" y="630" width="20" height="190" as="geometry" />
        </mxCell>
        <mxCell id="KaYYD5McjIgpDxFcV0bV-44" value="9 Stu Reg Tress" style="text;html=1;align=center;verticalAlign=middle;resizable=0;points=[];autosize=1;strokeColor=none;fillColor=none;rotation=-90;" vertex="1" parent="1">
          <mxGeometry x="315" y="710" width="110" height="30" as="geometry" />
        </mxCell>
        <mxCell id="KaYYD5McjIgpDxFcV0bV-45" value="" style="shape=curlyBracket;whiteSpace=wrap;html=1;rounded=1;flipH=1;labelPosition=right;verticalLabelPosition=middle;align=left;verticalAlign=middle;rotation=90;" vertex="1" parent="1">
          <mxGeometry x="581.25" y="692.5" width="20" height="325" as="geometry" />
        </mxCell>
        <mxCell id="KaYYD5McjIgpDxFcV0bV-46" value="21 Stus" style="text;html=1;align=center;verticalAlign=middle;resizable=0;points=[];autosize=1;strokeColor=none;fillColor=none;" vertex="1" parent="1">
          <mxGeometry x="560" y="870" width="70" height="30" as="geometry" />
        </mxCell>
        <mxCell id="KaYYD5McjIgpDxFcV0bV-57" value="" style="endArrow=none;html=1;rounded=0;exitX=1;exitY=0.5;exitDx=0;exitDy=0;" edge="1" parent="1" source="KaYYD5McjIgpDxFcV0bV-29" target="KaYYD5McjIgpDxFcV0bV-34">
          <mxGeometry width="50" height="50" relative="1" as="geometry">
            <mxPoint x="500" y="700" as="sourcePoint" />
            <mxPoint x="550" y="650" as="targetPoint" />
          </mxGeometry>
        </mxCell>
        <mxCell id="KaYYD5McjIgpDxFcV0bV-60" value="" style="endArrow=none;html=1;rounded=0;" edge="1" parent="1" source="KaYYD5McjIgpDxFcV0bV-34" target="KaYYD5McjIgpDxFcV0bV-38">
          <mxGeometry width="50" height="50" relative="1" as="geometry">
            <mxPoint x="610" y="680" as="sourcePoint" />
            <mxPoint x="660" y="630" as="targetPoint" />
          </mxGeometry>
        </mxCell>
        <mxCell id="KaYYD5McjIgpDxFcV0bV-64" value="" style="endArrow=none;html=1;rounded=0;exitX=1;exitY=0.5;exitDx=0;exitDy=0;" edge="1" parent="1" source="KaYYD5McjIgpDxFcV0bV-30" target="KaYYD5McjIgpDxFcV0bV-35">
          <mxGeometry width="50" height="50" relative="1" as="geometry">
            <mxPoint x="494" y="710" as="sourcePoint" />
            <mxPoint x="530" y="710" as="targetPoint" />
          </mxGeometry>
        </mxCell>
        <mxCell id="KaYYD5McjIgpDxFcV0bV-66" value="" style="endArrow=none;html=1;rounded=0;" edge="1" parent="1" source="KaYYD5McjIgpDxFcV0bV-35" target="KaYYD5McjIgpDxFcV0bV-39">
          <mxGeometry width="50" height="50" relative="1" as="geometry">
            <mxPoint x="590.26" y="710" as="sourcePoint" />
            <mxPoint x="686.26" y="710" as="targetPoint" />
          </mxGeometry>
        </mxCell>
        <mxCell id="KaYYD5McjIgpDxFcV0bV-67" value="" style="endArrow=none;html=1;rounded=0;" edge="1" parent="1" source="KaYYD5McjIgpDxFcV0bV-32" target="KaYYD5McjIgpDxFcV0bV-36">
          <mxGeometry width="50" height="50" relative="1" as="geometry">
            <mxPoint x="495.12" y="799.8599999999999" as="sourcePoint" />
            <mxPoint x="531.12" y="799.8599999999999" as="targetPoint" />
          </mxGeometry>
        </mxCell>
        <mxCell id="KaYYD5McjIgpDxFcV0bV-68" value="" style="endArrow=none;html=1;rounded=0;" edge="1" parent="1" source="KaYYD5McjIgpDxFcV0bV-36" target="KaYYD5McjIgpDxFcV0bV-40">
          <mxGeometry width="50" height="50" relative="1" as="geometry">
            <mxPoint x="590.38" y="799.8599999999999" as="sourcePoint" />
            <mxPoint x="686.38" y="799.8599999999999" as="targetPoint" />
          </mxGeometry>
        </mxCell>
        <mxCell id="KaYYD5McjIgpDxFcV0bV-78" style="edgeStyle=orthogonalEdgeStyle;rounded=0;orthogonalLoop=1;jettySize=auto;html=1;" edge="1" parent="1" source="KaYYD5McjIgpDxFcV0bV-70">
          <mxGeometry relative="1" as="geometry">
            <mxPoint x="1030.0000000000002" y="505" as="targetPoint" />
          </mxGeometry>
        </mxCell>
        <mxCell id="KaYYD5McjIgpDxFcV0bV-70" value="Global Pred Value" style="ellipse;whiteSpace=wrap;html=1;aspect=fixed;" vertex="1" parent="1">
          <mxGeometry x="880" y="475" width="60" height="60" as="geometry" />
        </mxCell>
        <mxCell id="KaYYD5McjIgpDxFcV0bV-80" style="edgeStyle=orthogonalEdgeStyle;rounded=0;orthogonalLoop=1;jettySize=auto;html=1;entryX=0.5;entryY=1;entryDx=0;entryDy=0;" edge="1" parent="1" source="KaYYD5McjIgpDxFcV0bV-72" target="KaYYD5McjIgpDxFcV0bV-83">
          <mxGeometry relative="1" as="geometry">
            <mxPoint x="1060.0000000000002" y="535" as="targetPoint" />
          </mxGeometry>
        </mxCell>
        <mxCell id="KaYYD5McjIgpDxFcV0bV-72" value="Stu Pred Value" style="ellipse;whiteSpace=wrap;html=1;aspect=fixed;" vertex="1" parent="1">
          <mxGeometry x="880" y="620" width="60" height="60" as="geometry" />
        </mxCell>
        <mxCell id="KaYYD5McjIgpDxFcV0bV-81" value="x0.1" style="text;html=1;align=center;verticalAlign=middle;resizable=0;points=[];autosize=1;strokeColor=none;fillColor=none;" vertex="1" parent="1">
          <mxGeometry x="945" y="478" width="50" height="30" as="geometry" />
        </mxCell>
        <mxCell id="KaYYD5McjIgpDxFcV0bV-82" value="x0.9" style="text;html=1;align=center;verticalAlign=middle;resizable=0;points=[];autosize=1;strokeColor=none;fillColor=none;" vertex="1" parent="1">
          <mxGeometry x="945" y="620" width="50" height="30" as="geometry" />
        </mxCell>
        <mxCell id="KaYYD5McjIgpDxFcV0bV-85" style="edgeStyle=orthogonalEdgeStyle;rounded=0;orthogonalLoop=1;jettySize=auto;html=1;entryX=0;entryY=0.5;entryDx=0;entryDy=0;" edge="1" parent="1" source="KaYYD5McjIgpDxFcV0bV-83" target="KaYYD5McjIgpDxFcV0bV-84">
          <mxGeometry relative="1" as="geometry" />
        </mxCell>
        <mxCell id="KaYYD5McjIgpDxFcV0bV-83" value="SUM" style="ellipse;whiteSpace=wrap;html=1;" vertex="1" parent="1">
          <mxGeometry x="990" y="490" width="60" height="30" as="geometry" />
        </mxCell>
        <mxCell id="KaYYD5McjIgpDxFcV0bV-84" value="Global Pred Value" style="ellipse;whiteSpace=wrap;html=1;aspect=fixed;" vertex="1" parent="1">
          <mxGeometry x="1100" y="475" width="60" height="60" as="geometry" />
        </mxCell>
        <mxCell id="KaYYD5McjIgpDxFcV0bV-87" value="" style="endArrow=none;dashed=1;html=1;rounded=0;entryX=0.5;entryY=1;entryDx=0;entryDy=0;" edge="1" parent="1" source="KaYYD5McjIgpDxFcV0bV-29" target="KaYYD5McjIgpDxFcV0bV-20">
          <mxGeometry width="50" height="50" relative="1" as="geometry">
            <mxPoint x="480" y="660" as="sourcePoint" />
            <mxPoint x="530" y="610" as="targetPoint" />
          </mxGeometry>
        </mxCell>
        <mxCell id="KaYYD5McjIgpDxFcV0bV-88" value="" style="endArrow=none;dashed=1;html=1;rounded=0;" edge="1" parent="1" source="KaYYD5McjIgpDxFcV0bV-30" target="KaYYD5McjIgpDxFcV0bV-29">
          <mxGeometry width="50" height="50" relative="1" as="geometry">
            <mxPoint x="480.43" y="689.86" as="sourcePoint" />
            <mxPoint x="480.43" y="649.86" as="targetPoint" />
          </mxGeometry>
        </mxCell>
        <mxCell id="KaYYD5McjIgpDxFcV0bV-90" value="" style="endArrow=none;dashed=1;html=1;rounded=0;" edge="1" parent="1" source="KaYYD5McjIgpDxFcV0bV-32" target="KaYYD5McjIgpDxFcV0bV-30">
          <mxGeometry width="50" height="50" relative="1" as="geometry">
            <mxPoint x="500.42" y="779.86" as="sourcePoint" />
            <mxPoint x="500.42" y="739.86" as="targetPoint" />
          </mxGeometry>
        </mxCell>
        <mxCell id="KaYYD5McjIgpDxFcV0bV-91" value="" style="endArrow=none;dashed=1;html=1;rounded=0;" edge="1" parent="1" source="KaYYD5McjIgpDxFcV0bV-36" target="KaYYD5McjIgpDxFcV0bV-35">
          <mxGeometry width="50" height="50" relative="1" as="geometry">
            <mxPoint x="554.76" y="780" as="sourcePoint" />
            <mxPoint x="555" y="730" as="targetPoint" />
          </mxGeometry>
        </mxCell>
        <mxCell id="KaYYD5McjIgpDxFcV0bV-92" value="&lt;font style=&quot;font-size: 20px;&quot;&gt;...&lt;/font&gt;" style="text;html=1;align=center;verticalAlign=middle;resizable=0;points=[];autosize=1;strokeColor=none;fillColor=none;rotation=90;" vertex="1" parent="1">
          <mxGeometry x="556.01" y="740" width="40" height="40" as="geometry" />
        </mxCell>
        <mxCell id="KaYYD5McjIgpDxFcV0bV-93" value="" style="endArrow=none;dashed=1;html=1;rounded=0;" edge="1" parent="1" source="KaYYD5McjIgpDxFcV0bV-35" target="KaYYD5McjIgpDxFcV0bV-34">
          <mxGeometry width="50" height="50" relative="1" as="geometry">
            <mxPoint x="553.76" y="690" as="sourcePoint" />
            <mxPoint x="553.76" y="670" as="targetPoint" />
          </mxGeometry>
        </mxCell>
        <mxCell id="KaYYD5McjIgpDxFcV0bV-94" value="" style="endArrow=none;dashed=1;html=1;rounded=0;" edge="1" parent="1" source="KaYYD5McjIgpDxFcV0bV-34" target="KaYYD5McjIgpDxFcV0bV-22">
          <mxGeometry width="50" height="50" relative="1" as="geometry">
            <mxPoint x="553.76" y="630" as="sourcePoint" />
            <mxPoint x="553.76" y="590" as="targetPoint" />
          </mxGeometry>
        </mxCell>
        <mxCell id="KaYYD5McjIgpDxFcV0bV-95" value="" style="endArrow=none;dashed=1;html=1;rounded=0;" edge="1" parent="1" source="KaYYD5McjIgpDxFcV0bV-40" target="KaYYD5McjIgpDxFcV0bV-39">
          <mxGeometry width="50" height="50" relative="1" as="geometry">
            <mxPoint x="701" y="780" as="sourcePoint" />
            <mxPoint x="701" y="730" as="targetPoint" />
          </mxGeometry>
        </mxCell>
        <mxCell id="KaYYD5McjIgpDxFcV0bV-96" value="&lt;font style=&quot;font-size: 20px;&quot;&gt;...&lt;/font&gt;" style="text;html=1;align=center;verticalAlign=middle;resizable=0;points=[];autosize=1;strokeColor=none;fillColor=none;rotation=90;" vertex="1" parent="1">
          <mxGeometry x="710" y="740" width="40" height="40" as="geometry" />
        </mxCell>
        <mxCell id="KaYYD5McjIgpDxFcV0bV-97" value="" style="endArrow=none;dashed=1;html=1;rounded=0;" edge="1" parent="1" source="KaYYD5McjIgpDxFcV0bV-39" target="KaYYD5McjIgpDxFcV0bV-38">
          <mxGeometry width="50" height="50" relative="1" as="geometry">
            <mxPoint x="700" y="690" as="sourcePoint" />
            <mxPoint x="700" y="670" as="targetPoint" />
          </mxGeometry>
        </mxCell>
        <mxCell id="KaYYD5McjIgpDxFcV0bV-98" value="" style="endArrow=none;dashed=1;html=1;rounded=0;" edge="1" parent="1" source="KaYYD5McjIgpDxFcV0bV-38" target="KaYYD5McjIgpDxFcV0bV-21">
          <mxGeometry width="50" height="50" relative="1" as="geometry">
            <mxPoint x="700" y="630" as="sourcePoint" />
            <mxPoint x="700" y="590" as="targetPoint" />
          </mxGeometry>
        </mxCell>
        <mxCell id="KaYYD5McjIgpDxFcV0bV-99" value="&lt;font style=&quot;font-size: 26px;&quot;&gt;...&lt;/font&gt;" style="text;html=1;align=center;verticalAlign=middle;resizable=0;points=[];autosize=1;strokeColor=none;fillColor=none;" vertex="1" parent="1">
          <mxGeometry x="611.25" y="615" width="40" height="40" as="geometry" />
        </mxCell>
        <mxCell id="KaYYD5McjIgpDxFcV0bV-100" value="&lt;font style=&quot;font-size: 26px;&quot;&gt;...&lt;/font&gt;" style="text;html=1;align=center;verticalAlign=middle;resizable=0;points=[];autosize=1;strokeColor=none;fillColor=none;" vertex="1" parent="1">
          <mxGeometry x="611.25" y="675" width="40" height="40" as="geometry" />
        </mxCell>
        <mxCell id="KaYYD5McjIgpDxFcV0bV-101" value="&lt;font style=&quot;font-size: 26px;&quot;&gt;...&lt;/font&gt;" style="text;html=1;align=center;verticalAlign=middle;resizable=0;points=[];autosize=1;strokeColor=none;fillColor=none;" vertex="1" parent="1">
          <mxGeometry x="616.25" y="765" width="40" height="40" as="geometry" />
        </mxCell>
      </root>
    </mxGraphModel>
  </diagram>
</mxfile>
